<svg width="32" height="32" viewBox="0 0 32 32" fill="none" xmlns="http://www.w3.org/2000/svg">
<path d="M1.18375 19.2333C1.29956 19.3121 1.41634 19.3894 1.53991 19.4713L1.64824 19.5432C0.82635 20.363 0.321834 21.237 0.106976 22.2125C-0.0943053 23.1268 0.168892 23.8974 0.889377 24.5047C0.983991 24.5844 1.07985 24.6624 1.17807 24.7423L1.26742 24.815C0.721342 25.5375 0.425153 26.2629 0.361846 27.0315C0.282885 27.9929 0.617011 28.6844 1.35481 29.0871C1.89895 29.384 2.4338 29.6602 2.99706 29.7774C4.11368 30.0064 5.24212 30.1734 6.37717 30.278C7.9611 30.4274 9.67829 30.5502 11.6274 30.6534C12.713 30.7109 13.9743 30.7673 15.2858 30.7673C15.488 30.7673 15.6912 30.7659 15.8953 30.763C17.3824 30.742 18.7074 30.654 19.8741 29.7858C20.0078 29.6722 20.1748 29.6056 20.3501 29.5961C20.5252 29.5865 20.6986 29.6346 20.8438 29.7331C21.0596 29.8396 21.2925 29.9073 21.5319 29.9331C21.5834 29.9417 21.6347 29.9504 21.6852 29.9598C23.7224 30.3399 25.8078 30.2937 27.8244 30.2487C28.123 30.242 28.4216 30.2358 28.7201 30.2301C29.8273 30.2103 30.5955 29.5894 30.9414 28.4342C31.0618 28.0458 31.1453 27.647 31.1907 27.2429L31.2571 26.6037C31.4041 25.1907 31.5562 23.7308 31.6572 22.2902C31.8873 19.0063 31.9629 15.6331 31.8819 12.2645C31.8658 11.6021 31.8276 10.9564 31.7683 10.3451C31.691 9.55034 31.3085 8.95605 30.662 8.62622C30.1277 8.35359 29.5222 8.0444 28.8851 7.89978C26.9511 7.46037 24.9591 7.56731 23.2013 7.66082C23.0223 7.67037 22.8374 7.67107 22.6585 7.67162C22.0628 7.67384 21.4478 7.67619 20.8506 7.99121C20.2516 6.51685 19.245 5.39851 18.3359 4.49711C17.9803 4.1446 17.6226 3.79394 17.2631 3.44513C16.6981 2.89406 16.1133 2.3243 15.5516 1.75231C14.6165 0.801457 13.4136 0.479933 11.874 0.768764C11.6216 0.815996 11.3812 0.913192 11.1669 1.05464C10.9527 1.19609 10.7688 1.37894 10.6262 1.59245C10.3193 2.05288 10.2079 2.61634 10.3164 3.15893C10.3802 3.51454 10.4859 3.86138 10.6311 4.19221C10.9652 4.92017 11.3277 5.6329 11.7328 6.42251C11.7838 6.52184 11.8373 6.61978 11.8909 6.71813C12.0906 7.0466 12.2414 7.40236 12.3387 7.77427C12.3143 7.78078 12.2916 7.78729 12.2703 7.79353C12.2161 7.81212 12.1597 7.82379 12.1025 7.8283C11.4238 7.83532 10.7449 7.84118 10.0662 7.84589C9.00932 7.8542 7.91662 7.86265 6.84206 7.8783C5.69776 7.89594 4.56128 8.0703 3.46433 8.39654C2.57786 8.64581 1.78214 9.14556 1.17266 9.83584C-0.0354487 11.2196 0.0113941 12.7883 1.29735 14.0312C1.30432 14.0479 1.30937 14.0654 1.31243 14.0833C1.31493 14.0939 1.31758 14.1051 1.32048 14.1172C0.691248 14.7569 0.260877 15.5652 0.0814756 16.4445C-0.180619 17.6193 0.190363 18.557 1.18375 19.2333ZM3.55256 14.7264C4.02438 14.6174 4.34898 14.3007 4.37974 13.9197C4.42129 13.4096 3.90375 13.2109 3.5947 13.0924C3.42844 13.0327 3.25846 12.9839 3.08587 12.9462C2.95884 12.9157 2.82753 12.8842 2.70299 12.8438C2.11757 12.6546 1.93636 12.3313 2.07752 11.7279C2.17901 11.2516 2.42858 10.8197 2.79051 10.494C3.57292 9.80232 4.36601 9.45323 5.28639 9.39519L5.37808 9.38937C5.37997 9.38925 5.38186 9.38913 5.38375 9.38901C7.34909 9.26542 9.37988 9.13771 11.3818 9.32495C11.93 9.37042 12.4813 9.36327 13.0282 9.30362C13.401 9.26705 13.6456 9.15637 13.7762 8.9652C13.9009 8.78192 13.9174 8.53299 13.8248 8.20329C13.5772 7.3628 13.2839 6.53641 12.9464 5.72779C12.7888 5.33696 12.6098 4.94791 12.4366 4.57147C12.4353 4.56871 12.434 4.56595 12.4328 4.56319C12.2178 4.09649 11.9956 3.61372 11.8136 3.12679C11.6659 2.73212 11.6529 2.45618 11.7735 2.28343C11.8972 2.10598 12.1743 2.01857 12.6185 2.02397C13.422 2.02882 14.013 2.26653 14.4805 2.77202C14.9298 3.2577 15.3985 3.74019 15.8519 4.20675C16.568 4.94345 17.3083 5.70521 17.9869 6.49579C19.3289 8.05895 19.9402 9.65063 19.8571 11.3619C19.8191 12.2409 19.8298 13.1214 19.8891 13.9993C19.9125 14.6824 19.8796 15.3663 19.7911 16.0441C19.748 16.4608 19.7036 16.8916 19.6869 17.3186C19.6245 18.914 19.5865 20.5369 19.5498 22.1064L19.5498 22.1068C19.5492 22.1314 19.5486 22.156 19.5481 22.1806C19.5266 23.0941 19.5052 24.0076 19.4789 24.921L19.4776 24.9598L19.4776 24.9605C19.4566 25.6921 19.4348 26.4485 19.3463 27.183C19.1971 28.4209 18.7469 28.8743 17.5619 28.9796C16.642 29.0613 15.6986 29.0708 14.7864 29.0798L14.7856 29.0798C14.4352 29.0832 14.0849 29.0867 13.735 29.0936C13.3637 29.1013 12.9865 29.0993 12.621 29.0974C12.6183 29.0974 12.6156 29.0974 12.6129 29.0974C12.4651 29.0965 12.317 29.096 12.1686 29.0956L12.1671 29.072L12.1053 29.0676C11.4156 29.0167 10.7257 28.9674 10.0356 28.9198C8.25172 28.7944 6.40708 28.6646 4.59707 28.4956C3.86592 28.4273 3.13282 28.1712 2.51221 27.9297C1.98068 27.7227 1.87027 27.4949 1.99855 26.8698C2.07245 26.5067 2.19738 26.1558 2.36955 25.8278C2.60076 25.3939 2.8918 25.208 3.31764 25.228C3.63926 25.2284 3.95466 25.1395 4.22873 24.9712C4.45037 24.8422 4.69142 24.5637 4.69447 24.3388C4.69752 24.1138 4.45523 23.8246 4.23581 23.7054C3.91148 23.5479 3.56576 23.4392 3.20973 23.3824C2.6624 23.2706 2.29918 23.1567 2.18074 22.9352C2.07684 22.7413 2.12962 22.4444 2.37537 21.8408C2.744 20.9367 3.24115 20.3698 3.94071 20.0569C4.15664 19.9793 4.33919 19.8295 4.45759 19.633C4.57599 19.4364 4.62302 19.2051 4.59071 18.9779C4.55719 18.4695 4.1779 18.2714 3.81136 18.1453C3.62462 18.0809 3.43123 18.0298 3.24422 17.9805C3.24274 17.9801 3.24125 17.9797 3.23977 17.9793C3.04569 17.928 2.84504 17.8749 2.65477 17.8073C2.06866 17.5995 1.92155 17.3621 1.99899 16.7506C2.14957 15.5645 2.62887 14.9401 3.55326 14.726L3.55256 14.7264ZM23.7516 28.6525C23.0456 28.6243 22.3421 28.5488 21.646 28.4265C20.9729 28.3156 20.9766 28.2741 21.0398 27.5665C21.1571 26.2531 21.253 24.8853 21.3332 23.385L21.371 22.681C21.3711 22.68 21.3711 22.6791 21.3712 22.6781C21.4655 20.9335 21.5631 19.1282 21.5993 17.3514C21.6345 15.6332 21.6189 13.8855 21.6038 12.1954C21.6038 12.1941 21.6038 12.1928 21.6038 12.1915C21.6 11.7798 21.5966 11.3681 21.5934 10.9565C21.5856 10.6446 21.5623 10.3333 21.5234 10.0237C21.5096 9.89195 21.4946 9.75675 21.4819 9.61628C22.0389 9.60025 22.596 9.57367 23.1361 9.5479C23.1422 9.5476 23.1484 9.54731 23.1546 9.54701C24.8473 9.4657 26.446 9.38895 28.0723 9.60797C28.119 9.61434 28.1657 9.61891 28.2125 9.62334C28.285 9.63041 28.3533 9.6372 28.421 9.64994C29.921 9.93476 30.1429 10.2041 30.1171 11.7028L30.1056 12.3677C30.1052 12.3961 30.1047 12.4244 30.1042 12.4528C30.0431 16.0036 29.9801 19.6727 29.8652 23.2801C29.8244 24.565 29.6676 25.8695 29.5159 27.1312L29.4699 27.5147C29.3575 28.4567 29.1702 28.641 28.2912 28.6725C26.776 28.7262 25.2796 28.6938 23.7523 28.6525H23.7516Z" fill="#3A353E"/>
<path d="M3.55256 14.7264C4.02438 14.6174 4.34898 14.3007 4.37974 13.9197C4.42129 13.4096 3.90375 13.2109 3.5947 13.0924C3.42844 13.0327 3.25846 12.9839 3.08587 12.9462C2.95884 12.9157 2.82753 12.8842 2.70299 12.8438C2.11757 12.6546 1.93636 12.3313 2.07752 11.7279C2.17901 11.2516 2.42858 10.8197 2.79051 10.494C3.57292 9.80232 4.36601 9.45323 5.28639 9.39519L5.37808 9.38937L5.38375 9.38901C7.34909 9.26542 9.37988 9.13771 11.3818 9.32495C11.93 9.37042 12.4813 9.36327 13.0282 9.30362C13.401 9.26705 13.6456 9.15637 13.7762 8.9652C13.9009 8.78192 13.9174 8.53299 13.8248 8.20329C13.5772 7.3628 13.2839 6.53641 12.9464 5.72779C12.7888 5.33696 12.6098 4.94791 12.4366 4.57147L12.4328 4.56319C12.2178 4.09649 11.9956 3.61372 11.8136 3.12679C11.6659 2.73212 11.6529 2.45618 11.7735 2.28343C11.8972 2.10598 12.1743 2.01857 12.6185 2.02397C13.422 2.02882 14.013 2.26653 14.4805 2.77202C14.9298 3.2577 15.3985 3.74019 15.8519 4.20675C16.568 4.94345 17.3083 5.70521 17.9869 6.49579C19.3289 8.05895 19.9402 9.65063 19.8571 11.3619C19.8191 12.2409 19.8298 13.1214 19.8891 13.9993C19.9125 14.6824 19.8796 15.3663 19.7911 16.0441C19.748 16.4608 19.7036 16.8916 19.6869 17.3186C19.6245 18.914 19.5865 20.5369 19.5498 22.1064L19.5498 22.1068L19.5481 22.1806C19.5266 23.0941 19.5052 24.0076 19.4789 24.921L19.4776 24.9598L19.4776 24.9605C19.4566 25.6921 19.4348 26.4485 19.3463 27.183C19.1971 28.4209 18.7469 28.8743 17.5619 28.9796C16.642 29.0613 15.6986 29.0708 14.7864 29.0798L14.7856 29.0798C14.4352 29.0832 14.0849 29.0867 13.735 29.0936C13.3637 29.1013 12.9865 29.0993 12.621 29.0974L12.6129 29.0974C12.4651 29.0965 12.317 29.096 12.1686 29.0956L12.1671 29.072L12.1053 29.0676C11.4156 29.0167 10.7257 28.9674 10.0356 28.9198C8.25172 28.7944 6.40708 28.6646 4.59707 28.4956C3.86592 28.4273 3.13282 28.1712 2.51221 27.9297C1.98068 27.7227 1.87027 27.4949 1.99855 26.8698C2.07245 26.5067 2.19738 26.1558 2.36955 25.8278C2.60076 25.3939 2.8918 25.208 3.31764 25.228C3.63926 25.2284 3.95466 25.1395 4.22873 24.9712C4.45037 24.8422 4.69142 24.5637 4.69447 24.3388C4.69752 24.1138 4.45523 23.8246 4.23581 23.7054C3.91148 23.5479 3.56576 23.4392 3.20973 23.3824C2.6624 23.2706 2.29918 23.1567 2.18074 22.9352C2.07684 22.7413 2.12962 22.4444 2.37537 21.8408C2.744 20.9367 3.24115 20.3698 3.94071 20.0569C4.15664 19.9793 4.33919 19.8295 4.45759 19.633C4.57599 19.4364 4.62302 19.2051 4.59071 18.9779C4.55719 18.4695 4.1779 18.2714 3.81136 18.1453C3.62462 18.0809 3.43123 18.0298 3.24422 17.9805L3.23977 17.9793C3.04569 17.928 2.84504 17.8749 2.65477 17.8073C2.06866 17.5995 1.92155 17.3621 1.99899 16.7506C2.14957 15.5645 2.62887 14.9401 3.55326 14.726L3.55256 14.7264Z" fill="#FFCFAB"/>
<path d="M23.7516 28.6525C23.0456 28.6243 22.3421 28.5488 21.646 28.4265C20.9729 28.3156 20.9766 28.2741 21.0398 27.5665C21.1571 26.2531 21.253 24.8853 21.3332 23.385L21.371 22.681L21.3712 22.6781C21.4655 20.9335 21.5631 19.1282 21.5993 17.3514C21.6345 15.6332 21.6189 13.8855 21.6038 12.1954L21.6038 12.1915C21.6 11.7798 21.5966 11.3681 21.5934 10.9565C21.5856 10.6446 21.5623 10.3333 21.5234 10.0237C21.5096 9.89195 21.4946 9.75675 21.4819 9.61628C22.0389 9.60025 22.596 9.57367 23.1361 9.5479L23.1546 9.54701C24.8473 9.4657 26.446 9.38895 28.0723 9.60797C28.119 9.61434 28.1657 9.61891 28.2125 9.62334C28.285 9.63041 28.3533 9.6372 28.421 9.64994C29.921 9.93476 30.1429 10.2041 30.1171 11.7028L30.1056 12.3677L30.1042 12.4528C30.0431 16.0036 29.9801 19.6727 29.8652 23.2801C29.8244 24.565 29.6676 25.8695 29.5159 27.1312L29.4699 27.5147C29.3575 28.4567 29.1702 28.641 28.2912 28.6725C26.776 28.7262 25.2796 28.6938 23.7523 28.6525H23.7516Z" fill="#C3F0D2"/>
<path d="M26.535 10.9045C25.69 10.504 24.544 10.7009 23.8098 11.3726C23.2191 11.9128 23.0412 12.5884 23.2813 13.38C23.6155 14.4824 24.5742 15.1369 25.9114 15.1759C25.943 15.1768 25.9741 15.1773 26.005 15.1773C26.5679 15.1773 27.0123 15.0249 27.327 14.7232C27.6895 14.3759 27.8785 13.832 27.8883 13.1071V13.1017C27.8233 12.0389 27.3676 11.2989 26.535 10.9045ZM26.5627 13.1876C26.5615 13.2846 26.5403 13.3803 26.5004 13.4688C26.4606 13.5573 26.4029 13.6366 26.3311 13.7018C26.2152 13.8047 26.0801 13.8836 25.9334 13.9338C25.7867 13.9839 25.6315 14.0044 25.477 13.9941C25.0648 13.9777 24.5609 13.3539 24.5472 12.8433C24.5472 12.7561 24.5645 12.6698 24.5981 12.5894C24.6318 12.5089 24.681 12.436 24.743 12.3747C24.9457 12.1747 25.2183 12.0615 25.5031 12.0591H25.5228C25.7842 12.0615 26.0341 12.1673 26.2178 12.3534C26.3277 12.4626 26.4148 12.5926 26.4741 12.7358C26.5332 12.879 26.5634 13.0326 26.5627 13.1876Z" fill="#3A353E"/>
<path d="M26.5627 13.1876C26.5615 13.2846 26.5403 13.3803 26.5004 13.4688C26.4606 13.5573 26.4029 13.6366 26.3311 13.7018C26.2152 13.8047 26.0801 13.8836 25.9334 13.9338C25.7867 13.9839 25.6315 14.0044 25.477 13.9941C25.0648 13.9777 24.5609 13.3539 24.5472 12.8433C24.5472 12.7561 24.5645 12.6698 24.5981 12.5894C24.6318 12.5089 24.681 12.436 24.743 12.3747C24.9457 12.1747 25.2183 12.0615 25.5031 12.0591H25.5228C25.7842 12.0615 26.0341 12.1673 26.2178 12.3534C26.3277 12.4626 26.4148 12.5926 26.4741 12.7358C26.5332 12.879 26.5634 13.0326 26.5627 13.1876Z" fill="white"/>
</svg>
